PathFileType	4	(X/Y/Z)	./resultDataOpenSim/trcMotMarkerGrf/sub10/qtm-12-03.trc
DataRate	CameraRate	NumFrames	NumMarkers	Units	OrigDataRate	OrigDataStartFrame	OrigNumFrames
250.000000	250.000000	11	24	m	250.000000	1	466
Frame#	Time	L.Toe.Tip			R.Toe.Tip			L.Ankle.Lat			R.Ankle.Lat			L.Ankle.Med			R.Ankle.Med			L.Heel			R.Heel			L.Knee.Lat			R.Knee.Lat			L.Knee.Med			R.Knee.Med			L.Thigh.Upper			R.Thigh.Upper			L.ASIS			R.ASIS			V.Sacral			L.Acromium			R.Acromium			C7			L.Elbow			R.Elbow			L.Wrist.Lat			R.Wrist.Lat
		X1	Y1	Z1	X2	Y2	Z2	X3	Y3	Z3	X4	Y4	Z4	X5	Y5	Z5	X6	Y6	Z6	X7	Y7	Z7	X8	Y8	Z8	X9	Y9	Z9	X10	Y10	Z10	X11	Y11	Z11	X12	Y12	Z12	X13	Y13	Z13	X14	Y14	Z14	X15	Y15	Z15	X16	Y16	Z16	X17	Y17	Z17	X18	Y18	Z18	X19	Y19	Z19	X20	Y20	Z20	X21	Y21	Z21	X22	Y22	Z22	X23	Y23	Z23	X24	Y24	Z24

1	0	-1.4926016	0.038773837	-0.099897222	-1.0064662	0.10149088	0.036787602	-1.6278398	0.066349052	-0.12429971	-1.1428019	0.06809492	0.043101029	-1.6170915	0.092543557	-0.042583029	-1.120353	0.10807481	-0.032021108	NaN	NaN	NaN	-1.1706257	0.030786433	-0.020515052	-1.5261032	0.43695992	-0.17297328	-1.2731591	0.44037301	0.090798238	-1.5227882	0.42063591	-0.051892414	-1.2168878	0.46949488	-0.03906534	-1.4270311	0.81993702	-0.24399396	-1.3866414	0.84939846	0.13504888	-1.3502572	0.92383558	-0.18856151	-1.3204745	0.94251758	0.052437063	-1.5326227	0.95488915	-0.041924261	-1.3432582	1.3957253	-0.2285951	-1.3728608	1.3980015	0.096488523	-1.4391438	1.437467	-0.077367225	-1.3843336	1.0481667	-0.28520959	-1.52736	1.0869263	0.14510677	-1.1933902	0.89185734	-0.25502258	-1.4458035	0.86602163	0.21790159
2	0.004	-1.4925416	0.038703244	-0.099936675	-0.99174053	0.10512977	0.035194284	-1.6276186	0.066621614	-0.1242748	-1.1274686	0.068470991	0.042988232	-1.6163169	0.092918685	-0.042637988	-1.1064698	0.10910673	-0.032339527	NaN	NaN	NaN	-1.154967	0.030549702	-0.02034902	-1.5230813	0.43649635	-0.17314731	-1.2643089	0.44045152	0.090599872	-1.5198936	0.42009091	-0.051942281	-1.2112082	0.46759679	-0.039052978	-1.4222351	0.81920756	-0.24445621	-1.3807086	0.84768152	0.13488994	-1.3454127	0.92300212	-0.18869196	-1.3146357	0.94141119	0.05207868	-1.5273673	0.95307221	-0.041583326	-1.3387703	1.3944594	-0.22863551	-1.3680665	1.3966616	0.096359889	-1.4346428	1.4360977	-0.077372965	-1.3773832	1.0464549	-0.28483043	-1.5233719	1.0861917	0.14476799	-1.1843226	0.89277207	-0.2537301	-1.4441386	0.86482592	0.21832382
3	0.008	-1.4924735	0.038639523	-0.099984495	-0.97725935	0.10880971	0.03355671	-1.6273894	0.066899542	-0.12425615	-1.1123714	0.068976234	0.042961051	-1.6156062	0.0932808	-0.042687232	-1.0928383	0.11016558	-0.032584898	NaN	NaN	NaN	-1.1394901	0.030499891	-0.019868669	-1.5200155	0.43600094	-0.17328463	-1.2554885	0.44053965	0.090400066	-1.5168137	0.41956063	-0.052007051	-1.2055503	0.46572904	-0.039085507	-1.4174489	0.81844086	-0.2448832	-1.3745948	0.84596281	0.13474727	-1.3403987	0.92218377	-0.1887218	-1.3087441	0.94030086	0.051733742	-1.5220911	0.95124259	-0.041210006	-1.3342761	1.3931608	-0.22868315	-1.3633117	1.3953068	0.096272027	-1.4301446	1.4347281	-0.077415711	-1.3704342	1.0447428	-0.28442406	-1.519369	1.0854567	0.14444329	-1.1753735	0.89367359	-0.25246008	-1.4424957	0.86363537	0.21875843
4	0.012	-1.4924089	0.038583751	-0.10002062	-0.9631644	0.11251877	0.031820163	-1.627146	0.067183697	-0.12424887	-1.0976262	0.069672234	0.043084908	-1.6149937	0.093632277	-0.042718808	-1.0796112	0.11125286	-0.032719528	NaN	NaN	NaN	-1.1243317	0.030741157	-0.018897203	-1.5168835	0.4354663	-0.17338675	-1.2467073	0.4406437	0.090197726	-1.5134941	0.41904313	-0.052087243	-1.1999309	0.46392118	-0.039179373	-1.4126554	0.81762889	-0.24523291	-1.3683021	0.84423103	0.13461505	-1.3351681	0.92137108	-0.18863383	-1.3028031	0.93917114	0.051402575	-1.5167818	0.94938226	-0.040791548	-1.3297623	1.3918171	-0.22872608	-1.3585624	1.3939425	0.096243502	-1.4256418	1.4333572	-0.077489247	-1.3634821	1.0430318	-0.28399605	-1.5153371	1.084708	0.14413457	-1.1665472	0.894572	-0.25120916	-1.4408581	0.86244441	0.21920627
5	0.016	-1.4923622	0.038531929	-0.10002397	-0.94952034	0.11616581	0.02996777	-1.6268864	0.067483619	-0.1242541	-1.083291	0.070546333	0.043372794	-1.6144798	0.093989814	-0.042720503	-1.0668743	0.11234055	-0.032748086	NaN	NaN	NaN	-1.1096554	0.031221972	-0.017441588	-1.513677	0.43490411	-0.17348865	-1.2379789	0.44076572	0.089992774	-1.509987	0.41853087	-0.052181335	-1.1943783	0.46219311	-0.039318141	-1.4078449	0.81679311	-0.24550954	-1.3619507	0.84247301	0.13448106	-1.3298436	0.92053367	-0.18850722	-1.2968737	0.93800665	0.051071299	-1.5114509	0.94748286	-0.040335886	-1.3252241	1.3904378	-0.22874542	-1.3537939	1.3925862	0.096275155	-1.4211239	1.4319912	-0.077543749	-1.3565385	1.0413356	-0.28358444	-1.5112756	1.0839352	0.14384035	-1.1577881	0.89548971	-0.24995635	-1.4392106	0.86124889	0.21965941
6	0.02	-1.49233	0.038482873	-0.10000261	-0.93634366	0.11962725	0.028040653	-1.6266107	0.067829268	-0.12426633	-1.0694144	0.071546057	0.043790123	-1.6140381	0.094376576	-0.042683429	-1.0546539	0.11339879	-0.032694896	NaN	NaN	NaN	-1.0955789	0.031784914	-0.01567312	-1.5103713	0.43433353	-0.17362331	-1.2293111	0.44090571	0.089785417	-1.5063494	0.41801938	-0.052298837	-1.1889171	0.46055234	-0.0394689	-1.40303	0.81595542	-0.24576639	-1.3556036	0.84068572	0.13435326	-1.3246422	0.91963586	-0.18847424	-1.2910014	0.93680616	0.050723804	-1.5061092	0.94555546	-0.039852417	-1.3206565	1.3890399	-0.22873306	-1.3490597	1.3912471	0.096355108	-1.4165808	1.4306354	-0.077539797	-1.3496185	1.0396746	-0.28323058	-1.5071882	1.0831427	0.1435649	-1.14904	0.89644466	-0.24867914	-1.4375653	0.86005399	0.2201097
7	0.024	-1.4922992	0.038438975	-0.099975672	-0.92365777	0.12279914	0.026087073	-1.626321	0.068252401	-0.12427487	-1.0560665	0.072598656	0.044281113	-1.6136309	0.09480658	-0.04260374	-1.0429114	0.11442005	-0.032578377	NaN	NaN	NaN	-1.0820966	0.032341303	-0.013810529	-1.5069554	0.4337776	-0.17379886	-1.2207075	0.44106319	0.089575649	-1.5026164	0.41748703	-0.052443729	-1.1835572	0.45901333	-0.039600713	-1.3982304	0.81512048	-0.24604896	-1.3492367	0.83888213	0.1342529	-1.3197277	0.91865703	-0.18864013	-1.2851807	0.93558437	0.05035877	-1.5007561	0.94362333	-0.039343098	-1.3160544	1.3876421	-0.2286903	-1.3444141	1.3899269	0.096459164	-1.4120122	1.4292864	-0.077485989	-1.3427291	1.0380574	-0.28293529	-1.5030781	1.0823426	0.14331456	-1.1402847	0.89744388	-0.24737241	-1.4358821	0.85887534	0.22055621
8	0.028	-1.4922616	0.038399777	-0.099949321	-0.91150668	0.12560744	0.024152312	-1.6260237	0.068760993	-0.12426988	-1.0433422	0.07362692	0.044774955	-1.6132347	0.095272208	-0.04248786	-1.0315722	0.11541686	-0.03240649	NaN	NaN	NaN	-1.0691932	0.032940768	-0.012057602	-1.5034612	0.43324917	-0.17400078	-1.2121711	0.44123774	0.08936305	-1.4988095	0.41689913	-0.052597183	-1.178286	0.45760024	-0.039692537	-1.393448	0.81428293	-0.24636625	-1.3428232	0.8370803	0.13418082	-1.3150618	0.91761372	-0.18899411	-1.279373	0.93435588	0.04998953	-1.4953811	0.941706	-0.038803428	-1.3114182	1.3862582	-0.22862025	-1.3398095	1.3886274	0.096571314	-1.4074228	1.4279393	-0.077416518	-1.3358591	1.0364719	-0.28263966	-1.4989451	1.0815486	0.14309464	-1.1315568	0.89848261	-0.24606131	-1.4340173	0.85774152	0.22100953
9	0.032	-1.4922161	0.038361443	-0.099920869	-0.89989565	0.12799597	0.022360727	-1.6257253	0.069341152	-0.12424801	-1.0313179	0.074573186	0.045198527	-1.6128475	0.095758452	-0.042349673	-1.0206001	0.11639824	-0.032187594	NaN	NaN	NaN	-1.0569434	0.033637112	-0.01064971	-1.4999167	0.43273723	-0.17420019	-1.2037055	0.44142909	0.089147047	-1.4949217	0.41625853	-0.052732325	-1.1730673	0.45632888	-0.039735758	-1.3886703	0.81343962	-0.24669152	-1.3363837	0.83529204	0.13410728	-1.3104324	0.91655891	-0.18941906	-1.2735452	0.93312063	0.049624408	-1.4899712	0.9398164	-0.038223447	-1.3067535	1.3848971	-0.22852438	-1.3351319	1.3873582	0.096697678	-1.4028159	1.4265974	-0.077358191	-1.3289865	1.0349038	-0.28226796	-1.4947817	1.0807666	0.14290447	-1.122916	0.89954839	-0.24478755	-1.4318607	0.85668374	0.22148296
10	0.036	-1.4921632	0.038322363	-0.099888097	-0.88870336	0.12994271	0.020945668	-1.6254218	0.069979473	-0.12421184	-1.0200051	0.075408654	0.045513931	-1.6124658	0.09627098	-0.042198711	-1.0100163	0.1173516	-0.031936802	NaN	NaN	NaN	-1.0453967	0.034379537	-0.0097092626	-1.4963012	0.43221462	-0.1743633	-1.1953121	0.44163771	0.088928031	-1.4909323	0.415609	-0.052830407	-1.1678479	0.4552024	-0.039740733	-1.3838909	0.81258974	-0.24698234	-1.3299312	0.83353051	0.13400449	-1.3056681	0.91553877	-0.18982158	-1.2677003	0.93186764	0.04925346	-1.4845235	0.93796484	-0.037599514	-1.3020673	1.3835676	-0.22840323	-1.3303116	1.3861332	0.096848274	-1.398193	1.4252711	-0.07731894	-1.3220963	1.0333505	-0.28177993	-1.4905637	1.0799713	0.14272132	-1.1143936	0.90063217	-0.24357655	-1.4294861	0.85570451	0.22197636
11	0.04	-1.4921029	0.038286562	-0.099851242	-0.87773155	0.13149453	0.020099315	-1.6250994	0.070680346	-0.12416524	-1.0093677	0.07611639	0.045732733	-1.6120665	0.09683717	-0.042037087	-0.99985032	0.11824958	-0.031672894	NaN	NaN	NaN	-1.0345219	0.03507351	-0.0091332855	-1.492573	0.43166423	-0.17447131	-1.1869819	0.44186635	0.088709357	-1.486872	0.41497726	-0.052874933	-1.162569	0.45421794	-0.039734715	-1.3791141	0.8117321	-0.24721205	-1.3234135	0.83182155	0.13387641	-1.3007649	0.91455396	-0.19020524	-1.2618687	0.93059089	0.048860245	-1.4790514	0.93615735	-0.036949113	-1.2973634	1.3822769	-0.22825993	-1.3253797	1.3849536	0.097024679	-1.3935505	1.4239704	-0.077284058	-1.315188	1.0318168	-0.28117096	-1.4862428	1.0790934	0.14248943	-1.1059829	0.90173574	-0.2424254	-1.4270737	0.85477243	0.22247552
